HIERARCHY
ROOT Hips
{
	OFFSET 0.000000 0.000000 0.000000
	CHANNELS 6 Xposition Yposition Zposition Zrotation Yrotation Xrotation 
	JOINT LHipJoint
	{
		OFFSET 0.000000 0.000000 0.000000
		CHANNELS 3 Zrotation Yrotation Xrotation
		JOINT LeftUpLeg
		{
			OFFSET 8.178360 -10.767780 5.035740
			CHANNELS 3 Zrotation Yrotation Xrotation
			JOINT LeftLeg
			{
				OFFSET 14.688660 -40.356780 0.000000
				CHANNELS 3 Zrotation Yrotation Xrotation
				JOINT LeftFoot
				{
					OFFSET 15.373200 -42.237540 0.000000
					CHANNELS 3 Zrotation Yrotation Xrotation
					JOINT LeftToeBase
					{
						OFFSET 0.945840 -2.598660 13.935300
						CHANNELS 3 Zrotation Yrotation Xrotation
						End Site
						{
							OFFSET 0.000000 0.000000 0.000000
						}
					}
				}
			}
		}
	}
	JOINT RHipJoint
	{
		OFFSET 0.000000 0.000000 0.000000
		CHANNELS 3 Zrotation Yrotation Xrotation
		JOINT RightUpLeg
		{
			OFFSET -7.833120 -10.767780 5.035740
			CHANNELS 3 Zrotation Yrotation Xrotation
			JOINT RightLeg
			{
				OFFSET -15.255180 -41.913300 0.000000
				CHANNELS 3 Zrotation Yrotation Xrotation
				JOINT RightFoot
				{
					OFFSET -15.409560 -42.337380 0.000000
					CHANNELS 3 Zrotation Yrotation Xrotation
					JOINT RightToeBase
					{
						OFFSET -0.988380 -2.715540 14.178900
						CHANNELS 3 Zrotation Yrotation Xrotation
						End Site
						{
							OFFSET 0.000000 0.000000 0.000000
						}
					}
				}
			}
		}
	}
	JOINT LowerBack
	{
		OFFSET 0.000000 0.000000 0.000000
		CHANNELS 3 Zrotation Yrotation Xrotation
		JOINT Spine
		{
			OFFSET 0.169620 12.213540 -1.160280
			CHANNELS 3 Zrotation Yrotation Xrotation
			JOINT Spine1
			{
				OFFSET 0.340320 12.293100 -0.256500
				CHANNELS 3 Zrotation Yrotation Xrotation
				JOINT Neck
				{
					OFFSET 0.000000 0.000000 0.000000
					CHANNELS 3 Zrotation Yrotation Xrotation
					JOINT Neck1
					{
						OFFSET -0.325020 10.477440 1.032120
						CHANNELS 3 Zrotation Yrotation Xrotation
						JOINT Head
						{
							OFFSET 0.624420 10.568160 -0.743820
							CHANNELS 3 Zrotation Yrotation Xrotation
							End Site
							{
								OFFSET 0.000000 0.000000 0.000000
							}
						}
					}
				}
				JOINT LeftShoulder
				{
					OFFSET 0.000000 0.000000 0.000000
					CHANNELS 3 Zrotation Yrotation Xrotation
					JOINT LeftArm
					{
						OFFSET 20.174460 7.205340 -1.867260
						CHANNELS 3 Zrotation Yrotation Xrotation
						JOINT LeftForeArm
						{
							OFFSET 29.898000 -0.000000 -0.000000
							CHANNELS 3 Zrotation Yrotation Xrotation
							JOINT LeftHand
							{
								OFFSET 20.901360 -0.000000 -0.000000
								CHANNELS 3 Zrotation Yrotation Xrotation
								JOINT LeftFingerBase
								{
									OFFSET 0.000000 0.000000 0.000000
									CHANNELS 3 Zrotation Yrotation Xrotation
									JOINT LeftHandIndex1
									{
										OFFSET 4.291560 -0.000000 -0.000000
										CHANNELS 3 Zrotation Yrotation Xrotation
										End Site
										{
											OFFSET 0.000000 0.000000 0.000000
										}
									}
								}
								JOINT LThumb
								{
									OFFSET 0.000000 0.000000 0.000000
									CHANNELS 3 Zrotation Yrotation Xrotation
									End Site
									{
										OFFSET 0.000000 0.000000 0.000000
									}
								}
							}
						}
					}
				}
				JOINT RightShoulder
				{
					OFFSET 0.000000 0.000000 0.000000
					CHANNELS 3 Zrotation Yrotation Xrotation
					JOINT RightArm
					{
						OFFSET -18.819600 8.244300 -2.427900
						CHANNELS 3 Zrotation Yrotation Xrotation
						JOINT RightForeArm
						{
							OFFSET -31.451400 -0.000000 -0.000000
							CHANNELS 3 Zrotation Yrotation Xrotation
							JOINT RightHand
							{
								OFFSET -20.665020 -0.000000 -0.000000
								CHANNELS 3 Zrotation Yrotation Xrotation
								JOINT RightFingerBase
								{
									OFFSET 0.000000 0.000000 0.000000
									CHANNELS 3 Zrotation Yrotation Xrotation
									JOINT RightHandIndex1
									{
										OFFSET -3.735180 -0.000000 -0.000000
										CHANNELS 3 Zrotation Yrotation Xrotation
										End Site
										{
											OFFSET 0.000000 0.000000 0.000000
										}
									}
								}
								JOINT RThumb
								{
									OFFSET 0.000000 0.000000 0.000000
									CHANNELS 3 Zrotation Yrotation Xrotation
									End Site
									{
										OFFSET 0.000000 0.000000 0.000000
									}
								}
							}
						}
					}
				}
			}
		}
	}
}
MOTION
Frames:	8
Frame Time:	0.0333333
-77.843496 107.413602 -73.196322 0.465009 1.224668 -0.504474 -1.708093 1.998191 2.719153 -17.655415 -4.544201 -1.317231 6.447888 14.492403 48.851427 1.418024 -3.625584 27.540338 0.095300 1.990600 5.479700 0.434075 -1.328815 0.874454 22.140462 8.170694 -15.603743 -1.713986 -8.775221 26.303498 -0.018963 -1.182333 4.084901 -0.223400 -3.042600 8.397300 -0.809623 -1.243115 9.150320 2.175526 -1.548547 1.627986 2.071811 -0.919504 -4.238609 -12.037515 -5.657639 -18.002375 7.489836 -5.460971 18.344028 4.702400 -2.848000 13.658200 -6.385767 -0.910652 -1.529891 -82.920903 -0.542225 27.266945 16.863417 -23.707527 -4.273099 -1.265209 -2.122576 7.807735 19.333107 21.891915 8.613700 -7.125000 0.000000 0.000000 -9.721400 55.272900 -2.468900 5.348326 1.521367 -1.076700 84.477068 -6.577825 4.256127 -12.830596 19.073302 -2.224807 0.284512 -0.284623 12.581361 -13.925576 9.513787 -2.458400 7.125000 0.000000 0.000000 9.057700 -20.015200 5.478600 
-78.189066 107.591184 -69.538458 0.040866 0.598655 -0.968109 -1.649668 1.796531 2.414836 -16.651503 -4.469263 -5.795916 8.091561 15.787427 54.775366 0.734172 -3.351805 20.982614 0.030700 1.130400 3.107600 0.464390 -1.333307 0.997437 23.320458 7.359166 -12.610541 -1.582504 -8.416260 25.434553 -0.114127 -0.418674 2.083250 -0.037200 -1.245400 3.424400 -0.458443 -0.888967 9.068197 2.165698 -1.056860 1.675934 1.756745 -0.649990 -4.150976 -12.123745 -5.698357 -17.240006 7.399600 -5.587543 18.359609 4.664600 -2.940500 13.497100 -6.370172 -0.848169 -1.547661 -83.122539 0.420808 26.185447 16.949638 -23.857149 -4.313223 -1.280059 -2.137220 8.477626 19.375921 22.290240 8.768000 -7.125000 0.000000 0.000000 -9.878300 55.713400 -2.615300 5.331986 1.510484 -1.054766 84.346194 -5.870094 5.700021 -13.408087 19.918131 -2.438039 0.302670 -0.264403 11.315155 -14.262408 9.403446 -2.488000 7.125000 0.000000 0.000000 8.815300 -20.126400 5.306200 
-78.429642 107.687772 -65.987982 -0.439488 -0.181358 -1.422343 -1.610890 1.610993 2.146688 -15.690352 -4.329575 -9.887281 8.952522 16.443793 57.769629 0.316813 -3.272648 15.008483 0.062200 -1.609000 -4.426100 0.483423 -1.341303 1.107396 24.368928 6.273095 -9.593370 -1.440422 -8.017274 24.414197 -0.141891 -0.179204 1.437320 -0.113600 -2.173500 5.985400 0.041814 -0.392828 8.943895 2.146798 -0.359915 1.748440 1.304767 -0.280609 -4.013469 -12.142891 -5.831213 -16.597893 7.231647 -5.865162 18.633100 4.565800 -3.101600 13.488600 -6.348708 -0.794771 -1.565526 -83.558594 1.260416 24.716206 17.132498 -24.114170 -4.399887 -1.250207 -2.142941 7.347559 19.606395 21.789708 8.709100 -7.125000 0.000000 0.000000 -9.398300 55.237400 -2.377600 5.301143 1.496630 -1.030412 84.308391 -5.140620 7.461745 -14.040040 20.832120 -2.669801 0.407456 -0.390551 7.051399 -17.507999 13.820019 -4.527200 7.125000 0.000000 0.000000 6.473700 -15.213000 4.577900 
-78.624024 107.581584 -62.603688 -1.036823 -1.361785 -1.794622 -1.571559 1.424817 1.893650 -14.658053 -4.044610 -13.809438 9.175108 16.709892 58.566905 0.142257 -3.327950 10.439962 0.066500 -1.664400 -4.578900 0.498790 -1.329451 1.209099 25.372462 5.597442 -6.946770 -1.389076 -7.802647 23.965391 -0.378824 1.172646 -0.431260 -0.134200 -2.361600 6.506100 0.749295 0.219788 9.091036 2.087124 0.520107 1.716766 0.653058 0.180460 -4.193155 -12.112178 -5.975092 -16.011571 7.247620 -6.188548 18.933424 4.535300 -3.253600 13.531100 -6.325252 -0.730900 -1.591212 -83.779917 2.279781 23.214458 17.252090 -24.299763 -4.454266 -1.160845 -2.245200 6.054742 18.940428 22.421819 8.612600 -7.125000 0.000000 0.000000 -10.451100 55.808400 -2.793500 5.262517 1.506713 -1.018070 84.120128 -4.399426 9.201480 -15.137760 22.395597 -3.123416 0.380791 -0.266932 6.367634 -16.219785 11.092924 -3.349500 7.125000 0.000000 0.000000 7.365500 -18.254400 4.726900 
-78.684618 107.360802 -59.276994 -1.575604 -2.542543 -1.953300 -1.555325 1.223852 1.632773 -13.830375 -4.197376 -17.414036 8.769151 16.630762 57.311966 0.106357 -3.560660 5.731985 0.052800 -1.482700 -4.078200 0.510299 -1.299005 1.299088 26.042819 4.607984 -5.005341 -1.434954 -7.782389 24.082865 -0.686457 2.837313 -1.971338 -0.156000 -2.545300 7.015200 1.591686 0.708764 9.065578 2.037872 1.250720 1.743504 -0.031942 0.562060 -4.130621 -12.195473 -6.022144 -15.742392 7.342917 -6.290120 19.105191 4.592500 -3.305400 13.568300 -6.292016 -0.658835 -1.618860 -84.045230 3.235800 21.881050 17.523355 -24.685415 -4.602941 -1.045602 -2.217355 5.267363 18.080364 21.462387 7.872000 -7.125000 0.000000 0.000000 -10.972800 54.609400 -2.614000 5.206580 1.514134 -0.999446 83.716403 -3.491804 11.634760 -16.390899 24.136987 -3.676962 0.379449 -0.171230 5.856640 -15.964684 9.001410 -2.664100 7.125000 0.000000 0.000000 7.577200 -20.519500 4.479300 
-78.678624 107.014638 -55.971894 -2.084930 -3.830369 -1.787019 -1.559985 1.028973 1.394876 -13.081662 -3.998407 -20.683502 7.692797 16.120862 53.800249 0.099208 -2.663667 2.661297 0.116800 -2.203600 -6.068600 0.525279 -1.266485 1.378292 26.538144 4.270502 -3.256715 -1.508643 -7.836787 24.388496 -0.907309 3.982463 -3.101191 -0.293700 -3.485100 9.632300 2.490458 1.219960 8.929034 1.941400 2.011763 1.645695 -0.802195 0.956839 -4.185757 -12.255897 -6.052251 -15.472031 7.509685 -6.370713 19.104558 4.679000 -3.334800 13.538100 -6.245883 -0.575827 -1.659307 -83.958284 4.429067 21.894731 17.799311 -25.107285 -4.763327 -1.049807 -2.231816 5.365184 18.371170 21.719523 8.086400 -7.125000 0.000000 0.000000 -10.796300 54.943500 -2.659400 5.141328 1.521053 -0.983117 83.159459 -2.645686 14.205430 -17.366487 25.462698 -4.137236 0.384686 -0.114060 4.509597 -15.937345 7.998693 -2.355200 7.125000 0.000000 0.000000 7.621000 -21.603800 4.317200 
-78.631224 106.699062 -52.806582 -2.490944 -4.951132 -1.480596 -1.630326 0.846495 1.169370 -12.404498 -4.372499 -23.126790 6.053147 15.088623 48.253967 -0.040160 -0.537133 1.170090 0.083100 -1.859700 -5.118000 0.566511 -1.235943 1.455278 26.868010 3.845796 -1.535521 -1.487552 -7.718279 24.121982 -1.076403 4.683767 -4.410018 -0.139900 -2.410500 6.641600 3.179123 1.653849 9.016357 1.871440 2.655673 1.637060 -1.402145 1.292018 -4.179248 -12.193817 -6.118055 -15.796223 7.545957 -6.438990 19.045543 4.677400 -3.344700 13.607000 -6.235416 -0.531856 -1.685594 -83.945236 5.004639 21.733535 17.752716 -25.067401 -4.746598 -1.059445 -2.153313 5.936455 18.417476 20.810548 7.798100 -7.125000 0.000000 0.000000 -10.338600 53.964800 -2.297200 5.098942 1.541337 -0.959596 82.544563 -0.929399 16.644596 -18.340878 26.764975 -4.624166 0.365744 -0.084011 2.860466 -15.220614 7.930888 -2.219600 7.125000 0.000000 0.000000 8.158600 -21.725000 4.605000 
-78.634224 106.543680 -49.562676 -3.057544 -6.112514 -1.097020 -1.779318 0.706681 1.003025 -11.428908 -4.828497 -24.461579 4.045470 13.443336 40.976435 -0.473169 3.262351 -0.271897 0.183100 -2.755800 -7.599700 0.620512 -1.226939 1.525092 27.429220 4.013874 1.079675 -1.263542 -7.185783 22.584637 -1.069838 4.666873 -4.461492 -0.156800 -2.551600 7.032700 3.797202 2.112148 8.922786 1.858441 3.314461 1.665039 -1.833252 1.635221 -4.025042 -12.104146 -6.276666 -16.152388 7.481825 -6.629019 18.912952 4.599800 -3.411800 13.654100 -6.237573 -0.489685 -1.709329 -84.005986 5.560574 21.356978 17.596721 -24.885998 -4.660631 -1.073999 -2.172081 6.172594 18.441959 21.103849 7.909900 -7.125000 0.000000 0.000000 -10.442000 54.290600 -2.403900 5.084550 1.543599 -0.930437 82.137104 1.016458 17.139418 -18.762437 27.347094 -4.840984 0.356349 -0.152934 3.486994 -15.273938 10.014438 -2.819400 7.125000 0.000000 0.000000 8.073600 -19.519700 4.961100 
